<svg xmlns="http://www.w3.org/2000/svg" width="196.41" height="37.285" aria-label="Bluecoder logo" role="img"><defs><style>.main-a{fill:#003b85}</style></defs><path class="main-a" d="M27.334 0v.589h-1.21v2.39h-.687V.589h-1.213V0zM28.676 0l1.048 2.161h.033L30.837 0h.851v2.979h-.655v-2.1H31l-1.015 2.1h-.557l-.982-2.1h-.033v2.1h-.654V0z"/><path d="M94.7 73.126V60.1l26.09 7.464v-5.6L94.7 54.5l-5.6 2.815V88.97l5.6 2.815 26.09-7.464v-5.6L94.7 86.188V73.159z" transform="translate(-89.1 -54.5)" style="fill:#2ec5df"/><path class="main-a" d="m31.687 7.464-18.626 7.987v6.383l18.626 7.987v-5.6l-13.029-5.6 13.029-5.557z"/><g><path class="main-a" d="M46.451 9.755h8.773a5.918 5.918 0 0 1 3.961 1.244 5.03 5.03 0 0 1 .884 5.827 3.786 3.786 0 0 1-1.539 1.506 4.066 4.066 0 0 1 2 1.473 4.355 4.355 0 0 1 .655 2.553 5.108 5.108 0 0 1-.72 2.782 4.622 4.622 0 0 1-2 1.8 6.09 6.09 0 0 1-2.782.622h-9.232zm7.987 7.267a2.258 2.258 0 0 0 1.6-.524 2.036 2.036 0 0 0 .589-1.637 1.979 1.979 0 0 0-.589-1.669 2.884 2.884 0 0 0-1.735-.458h-3.994v4.288zm.229 7.627a3.127 3.127 0 0 0 1.9-.491 2.085 2.085 0 0 0 .655-1.735 2.212 2.212 0 0 0-.687-1.833 3.155 3.155 0 0 0-2-.556h-4.223v4.648h4.354zM63.833 9.755h3.9v14.6h8.184v3.241H63.866V9.755zM79.025 25.926a7.553 7.553 0 0 1-2-5.532V9.755h3.9v10.7a3.784 3.784 0 0 0 1.08 2.946 4.737 4.737 0 0 0 5.86 0 3.865 3.865 0 0 0 1.043-2.946v-10.7h3.9v10.639a7.672 7.672 0 0 1-1.964 5.532c-1.309 1.375-3.273 2.062-5.86 2.062s-4.653-.687-5.959-2.062zM95.815 9.755h12.374v3.241h-8.511v4.125h6.252v3.11h-6.252v4.124h8.511v3.241H95.815zM114.311 26.842a8.13 8.13 0 0 1-3.4-3.241 9.959 9.959 0 0 1-1.211-4.943 9.625 9.625 0 0 1 1.211-4.943 7.944 7.944 0 0 1 3.4-3.241 12.009 12.009 0 0 1 11.228.524v3.666a7.422 7.422 0 0 0-2.553-1.375 11.178 11.178 0 0 0-3.273-.426 6.2 6.2 0 0 0-4.419 1.539 6.224 6.224 0 0 0 0 8.413 6.175 6.175 0 0 0 4.387 1.539 11.435 11.435 0 0 0 3.339-.458 8.378 8.378 0 0 0 2.717-1.44v3.666a10.622 10.622 0 0 1-6.383 1.735 9.145 9.145 0 0 1-5.043-1.015zM131.955 26.81a8.927 8.927 0 0 1-3.437-3.273 10.057 10.057 0 0 1 0-9.69 8.574 8.574 0 0 1 3.437-3.306 10.048 10.048 0 0 1 4.878-1.178 9.92 9.92 0 0 1 4.845 1.178 8.484 8.484 0 0 1 3.4 3.306 10.057 10.057 0 0 1 0 9.69 8.62 8.62 0 0 1-3.4 3.273 9.92 9.92 0 0 1-4.845 1.178 10.14 10.14 0 0 1-4.878-1.178zm7.66-3.11a5.091 5.091 0 0 0 2-2 5.957 5.957 0 0 0 .753-3.012 6.03 6.03 0 0 0-.72-3.012 5.094 5.094 0 0 0-2-2 5.782 5.782 0 0 0-2.815-.687 5.91 5.91 0 0 0-2.848.687 5.093 5.093 0 0 0-2 2 6.4 6.4 0 0 0 0 6.023 5.174 5.174 0 0 0 2.03 2 5.909 5.909 0 0 0 2.848.687 5.061 5.061 0 0 0 2.752-.686zM148.977 9.755h6.22a11.247 11.247 0 0 1 5.074 1.08 7.8 7.8 0 0 1 3.339 3.077 9.078 9.078 0 0 1 1.179 4.714c0 2.946-.851 5.2-2.586 6.743s-4.125 2.291-7.2 2.291h-5.99V9.755zm6.22 14.6a5.536 5.536 0 0 0 4.19-1.539 5.8 5.8 0 0 0 1.44-4.223 6.328 6.328 0 0 0-.655-2.881 4.772 4.772 0 0 0-1.866-2 5.459 5.459 0 0 0-2.881-.72h-2.586l.036 11.363zM167.44 9.755h12.374v3.241h-8.511v4.125h6.252v3.11h-6.252v4.124h8.511v3.241H167.44zM182.236 9.755h7.725a6.886 6.886 0 0 1 4.747 1.506 5.557 5.557 0 0 1 1.7 4.386 5.835 5.835 0 0 1-.917 3.372 5.291 5.291 0 0 1-2.619 2.03l3.4 6.547h-3.994l-3.143-6.056h-3.032v6.056h-3.9V9.755zm7.038 8.577a3.769 3.769 0 0 0 2.324-.622 2.414 2.414 0 0 0 .851-2.03 2.358 2.358 0 0 0-.851-2.062 4.044 4.044 0 0 0-2.357-.589h-3.175v5.3z"/></g></svg>